<svg id="Group_549" data-name="Group 549" xmlns="http://www.w3.org/2000/svg" xmlns:xlink="http://www.w3.org/1999/xlink" width="148.795" height="40" viewBox="0 0 148.795 40">
  <defs>
    <clipPath id="clip-path">
      <rect id="Rectangle_110" data-name="Rectangle 110" width="148.795" height="40" fill="#20231e"/>
    </clipPath>
  </defs>
  <path id="Path_35" data-name="Path 35" d="M215.25,0V18.495h4.016V11.414h6.341V7.794h-6.341V3.725h7.028V0Z" transform="translate(-175.591 0)" fill="#20231e"/>
  <g id="Group_228" data-name="Group 228">
    <g id="Group_227" data-name="Group 227" clip-path="url(#clip-path)">
      <path id="Path_36" data-name="Path 36" d="M295.846,35.85a7.582,7.582,0,0,1-9.723-.013,6.164,6.164,0,0,1-1.836-4.65V22.943h3.857v7.794a3.506,3.506,0,0,0,.753,2.391,2.966,2.966,0,0,0,4.175,0,3.505,3.505,0,0,0,.753-2.391V22.943h3.857v8.243a6.155,6.155,0,0,1-1.836,4.663" transform="translate(-231.908 -18.716)" fill="#20231e"/>
      <rect id="Rectangle_109" data-name="Rectangle 109" width="3.857" height="18.495" transform="translate(67.864)" fill="#20231e"/>
      <path id="Path_37" data-name="Path 37" d="M410.526,0h3.858V18.494H411.53l-.449-1.189a6.692,6.692,0,0,1-4.465,1.612,7.661,7.661,0,0,1-3.857-.978,6.95,6.95,0,0,1-2.682-2.708,7.812,7.812,0,0,1-.964-3.871,7.738,7.738,0,0,1,.964-3.857,6.979,6.979,0,0,1,2.682-2.695,7.663,7.663,0,0,1,3.857-.978,6.9,6.9,0,0,1,3.91,1.163Zm-6.394,14.161a4.038,4.038,0,0,0,5.575-.013,3.824,3.824,0,0,0,1.11-2.8,3.9,3.9,0,1,0-7.794.013,3.8,3.8,0,0,0,1.11,2.8" transform="translate(-325.577)" fill="#20231e"/>
      <path id="Path_38" data-name="Path 38" d="M504.417,21.163h2.88V35.43h-3.038l-.317-1.268a6.839,6.839,0,0,1-4.624,1.691,7.206,7.206,0,0,1-5.35-2.153,7.375,7.375,0,0,1-2.127-5.4,7.294,7.294,0,0,1,7.477-7.5,6.788,6.788,0,0,1,4.676,1.744ZM496.848,31.1a3.735,3.735,0,0,0,2.774,1.11,3.911,3.911,0,1,0,.013-7.821,3.893,3.893,0,0,0-1.995.515,3.713,3.713,0,0,0-1.387,1.4,3.97,3.97,0,0,0-.5,1.995,3.819,3.819,0,0,0,1.1,2.8" transform="translate(-401.22 -16.962)" fill="#20231e"/>
      <path id="Path_39" data-name="Path 39" d="M598.628,35.85a7.582,7.582,0,0,1-9.723-.013,6.164,6.164,0,0,1-1.836-4.65V22.943h3.858v7.794a3.5,3.5,0,0,0,.753,2.391,2.966,2.966,0,0,0,4.174,0,3.5,3.5,0,0,0,.753-2.391V22.943h3.857v8.243a6.154,6.154,0,0,1-1.836,4.663" transform="translate(-478.903 -18.716)" fill="#20231e"/>
      <path id="Path_40" data-name="Path 40" d="M684.386,28.27a8.4,8.4,0,0,1-.079,1.136h-10.78a3.576,3.576,0,0,0,1.15,2.233,3.47,3.47,0,0,0,2.338.779,3.613,3.613,0,0,0,1.77-.436,3.2,3.2,0,0,0,1.242-1.2H684.1a7.317,7.317,0,0,1-7.081,5.073,7.079,7.079,0,0,1-5.284-2.167,7.378,7.378,0,0,1-2.114-5.363,8.238,8.238,0,0,1,.357-2.431A7,7,0,0,1,671,23.8a7.523,7.523,0,0,1,1.572-1.6,6.951,6.951,0,0,1,2.034-1.044,7.723,7.723,0,0,1,2.4-.37,7.431,7.431,0,0,1,3.844,1,6.819,6.819,0,0,1,2.616,2.721,7.879,7.879,0,0,1,.912,3.752m-7.372-4.2a3.362,3.362,0,0,0-2.18.713,3.561,3.561,0,0,0-1.2,1.982h6.9a4.073,4.073,0,0,0-.766-1.466,3.386,3.386,0,0,0-1.2-.911,3.7,3.7,0,0,0-1.546-.317" transform="translate(-546.242 -16.962)" fill="#20231e"/>
      <path id="Path_41" data-name="Path 41" d="M768.41,22.513h1.268v3.646h-1.664a3.048,3.048,0,0,0-2.338.766,3.67,3.67,0,0,0-.7,2.51v7.424h-3.857V22.592H763.6l.687,1.744a4.967,4.967,0,0,1,4.122-1.823" transform="translate(-620.884 -18.365)" fill="#20231e"/>
      <path id="Path_42" data-name="Path 42" d="M465.858,113.9h3.866v18.591h-2.86l-.45-1.192a6.706,6.706,0,0,1-4.475,1.615,7.676,7.676,0,0,1-3.866-.98,6.962,6.962,0,0,1-2.687-2.714,8.241,8.241,0,0,1,0-7.745,6.992,6.992,0,0,1,2.687-2.7,7.678,7.678,0,0,1,3.866-.98,6.909,6.909,0,0,1,3.919,1.165Zm-6.408,14.249a4.047,4.047,0,0,0,5.587-.013,3.832,3.832,0,0,0,1.112-2.807,3.906,3.906,0,1,0-6.7,2.82" transform="translate(-370.693 -92.912)" fill="#20231e"/>
      <path id="Path_43" data-name="Path 43" d="M226.379,117.522H219.3v4.1h6.39v3.647H219.3V132.4H215.25V113.768h11.128Z" transform="translate(-175.591 -92.807)" fill="#20231e"/>
      <path id="Path_44" data-name="Path 44" d="M288.388,149.9a8.121,8.121,0,0,1-3.993-.985,7.089,7.089,0,0,1-2.782-2.729,7.654,7.654,0,0,1-1-3.874,7.271,7.271,0,0,1,2.21-5.431,8.222,8.222,0,0,1,11.1,0,7.746,7.746,0,0,1-.013,10.849,7.6,7.6,0,0,1-5.524,2.17m0-3.647a3.64,3.64,0,0,0,2.742-1.1,4.307,4.307,0,0,0,0-5.671,3.988,3.988,0,0,0-5.511,0,3.916,3.916,0,0,0-1.065,2.835,4.508,4.508,0,0,0,.28,1.6,3.455,3.455,0,0,0,.785,1.251,3.682,3.682,0,0,0,1.211.8,4.018,4.018,0,0,0,1.557.293" transform="translate(-228.912 -109.898)" fill="#20231e"/>
      <path id="Path_45" data-name="Path 45" d="M552.231,149.9a7.388,7.388,0,0,1-3.155-.639,4.964,4.964,0,0,1-2.13-1.81,4.835,4.835,0,0,1-.759-2.689h3.78a1.987,1.987,0,0,0,.333,1.078,1.733,1.733,0,0,0,.839.639,3.47,3.47,0,0,0,1.225.2,3.024,3.024,0,0,0,1.012-.16,1.743,1.743,0,0,0,.745-.492,1.15,1.15,0,0,0,.293-.785,1.042,1.042,0,0,0-.692-.985,8.839,8.839,0,0,0-2.077-.559q-.879-.133-1.451-.266a8.5,8.5,0,0,1-1.358-.466,4.359,4.359,0,0,1-1.251-.759,3.627,3.627,0,0,1-.812-1.171A4.294,4.294,0,0,1,548.025,136a6.511,6.511,0,0,1,4.193-1.278,6.322,6.322,0,0,1,4.18,1.318,4.3,4.3,0,0,1,1.584,3.474h-3.7q0-1.7-2.157-1.7a2.339,2.339,0,0,0-1.411.373,1.191,1.191,0,0,0-.506,1.012.888.888,0,0,0,.146.492,1.214,1.214,0,0,0,.346.359,2.282,2.282,0,0,0,.626.253q.426.12.719.173l.878.16q.505.107.719.146t.719.146a5.878,5.878,0,0,1,.759.2l.692.253a2.565,2.565,0,0,1,.666.333q.226.174.559.413a1.963,1.963,0,0,1,.519.532q.186.293.373.639a2.42,2.42,0,0,1,.253.8,6.638,6.638,0,0,1,.067.958,4.282,4.282,0,0,1-1.651,3.527,6.792,6.792,0,0,1-4.366,1.318" transform="translate(-445.554 -109.898)" fill="#20231e"/>
      <path id="Path_46" data-name="Path 46" d="M373.917,136.184a7.705,7.705,0,0,1,9.865,0,6.22,6.22,0,0,1,1.852,4.709v8.347h-3.906v-7.9a3.571,3.571,0,0,0-.759-2.433,3.018,3.018,0,0,0-4.24,0,3.533,3.533,0,0,0-.759,2.433v7.9h-3.906v-8.347a6.286,6.286,0,0,1,1.852-4.731Z" transform="translate(-303.513 -109.635)" fill="#20231e"/>
      <path id="Path_47" data-name="Path 47" d="M27.636,0H11.962A2.062,2.062,0,0,0,9.9,2.062V7.837A2.063,2.063,0,0,1,7.837,9.9H2.062A2.062,2.062,0,0,0,0,11.962v5.775A2.062,2.062,0,0,0,2.062,19.8H7.837A2.062,2.062,0,0,1,9.9,21.861v5.775A2.063,2.063,0,0,1,7.837,29.7H2.062A2.062,2.062,0,0,0,0,31.761v5.775A2.062,2.062,0,0,0,2.062,39.6H7.837A2.063,2.063,0,0,0,9.9,37.535V31.761A2.062,2.062,0,0,1,11.962,29.7h5.775A2.063,2.063,0,0,0,19.8,27.636V21.861A2.062,2.062,0,0,0,17.736,19.8H11.962A2.062,2.062,0,0,1,9.9,17.736V11.962A2.062,2.062,0,0,1,11.962,9.9H27.636A2.063,2.063,0,0,0,29.7,7.837V2.062A2.063,2.063,0,0,0,27.636,0" fill="#fff"/>
    </g>
  </g>
</svg>
