<svg version="1.1" id="Laag_1" xmlns="http://www.w3.org/2000/svg" x="0" y="0" viewBox="0 0 495.3 260" xml:space="preserve"><style>.st0{fill:#1d1d1b}</style><path class="st0" d="M265.8 69.9h17.9v18h-17.9zm40.5 39.9h4.5v6.5h19.4V92.6h-41.9v46h22.4V151h-4.3v-7.8h-18.1v27.9h41.8v-50.3h-23.8zm-40.5-17.2h17.9v78.5h-17.9zm-45.4.1h18.1v59.1h4.7V92.7h18v78.4h-40.8zm-46.2-22.8h18.3v22.8h23.4v78.4h-18.7v-59.6h-4.7v59.6h-18.2zM82.6 92.7h41.5l.2 78.4h-18.7v-59.5h-4.7v59.5H82.6zM152 69.9h18v18h-18zm-23 0h18v18h-18zm-.4 22.8h18.5V171h-18.5z"/><path class="st0" d="M128.5 175.6h23.4V92.7h18V193h-41.5z"/><path d="M330.1 56h165.1v13.9H330.1zM0 56.3h82.5v13.9H0zm0-28.4h495.3v13.9H0zM82.6 0h247.5v13.9H82.6z" fill="#d0343e"/><path class="st0" d="M96.4 247.5c-.2-1.4-.3-2.2-.3-3.2v-16.8c0-.4.1-.5.5-.5h1.7c.4 0 .5.1.5.5v24.1c0 .4-.1.5-.5.5h-2c-.3 0-.4-.1-.6-.4l-8.4-18.1c-.4-1-.7-1.8-1.1-3.5l.1.8c.2 1 .3 1.9.3 2.8v17.9c0 .4-.1.5-.5.5h-1.6c-.4 0-.5-.1-.5-.5v-24.1c0-.4 0-.5.5-.5h2.3c.3 0 .4.1.6.3l8.1 17.1c.3.8.6 1.8.9 3.1zm9.1-10.7h-3.1c-.2 0-.3-.1-.3-.4V235c0-.3.1-.4.3-.4h5.5c.2 0 .2.1.2.4v16.8c0 .4 0 .4-.4.4h-1.9c-.3 0-.4-.1-.4-.3v-15.1zm3.3-8.8c0 1.3-1 2.3-2.2 2.3-1.3 0-2.3-1-2.3-2.3 0-1.2 1-2.2 2.3-2.2 1.2 0 2.2 1 2.2 2.2zm6.2 8.8h-3.1c-.2 0-.3-.1-.3-.4V235c0-.3.1-.4.3-.4h5.5c.2 0 .2.1.2.4v19.2c0 3.9-1.7 5.8-5.2 5.8-1.4 0-3-.4-4.2-1.1-.3-.1-.3-.3-.3-.4 0-.1 0-.2.1-.3l.7-1.5c0-.1.2-.3.3-.3 0 0 .1.1.3.1 1 .5 2.3.8 3.2.8 1.9 0 2.5-.8 2.5-4v-16.5zm3.4-8.8c0 1.3-1 2.3-2.2 2.3-1.3 0-2.3-1-2.3-2.3 0-1.2 1-2.2 2.3-2.2 1.1 0 2.2 1 2.2 2.2zm8.4 8.4c1.9-1.7 3.4-2.4 5.6-2.4 3.2 0 4.4 1.5 4.4 5.5v12.2c0 .4 0 .4-.4.4h-1.9c-.3 0-.4-.1-.4-.3v-12.4c0-2.3-.6-3.1-2.5-3.1-1.5 0-2.8.6-4.8 2.3v13c0 .4-.1.4-.4.4h-2c-.3 0-.4-.1-.4-.4v-25.2c0-.2.1-.4.3-.4l2-.4h.1c0-.1 0-.1.1-.1.2 0 .3.1.3.4v10.5zm25.8 11.9v-13.2c0-.3.2-.4.4-.5l1.9-.5h.2c.3 0 .3.1.3.4v12.8c0 1.9.2 2.8.9 3.8.1.1.1.1.1.2s-.1.1-.2.2l-1.7 1.1-.2.1c-.3 0-1-1-1.3-2.2-2.1 1.6-3.5 2.2-5.5 2.2-3.2 0-5-1.7-5-4.9v-12.7c0-.3.1-.4.4-.5l1.9-.5h.3c.2 0 .3.1.3.4V246c0 3.2.6 4.2 2.6 4.2 1.5 0 3.2-.7 4.6-1.9zm9.4-11.5h-3.1c-.2 0-.3-.1-.3-.4V235c0-.3.1-.4.3-.4h5.5c.2 0 .2.1.2.4v16.8c0 .4 0 .4-.4.4h-1.9c-.3 0-.4-.1-.4-.3v-15.1zm3.3-8.8c0 1.3-1 2.3-2.2 2.3-1.3 0-2.3-1-2.3-2.3 0-1.2 1-2.2 2.3-2.2 1.1 0 2.2 1 2.2 2.2zm3.9 22.8l.7-1.7c.1 0 .1-.2.3-.2.1 0 .1.1.3.1 1.5.7 3.2 1.2 4.5 1.2 1.7 0 3-1.1 3-2.6 0-1.2-.6-2-2.3-2.8-4.8-2.2-5.8-3.3-5.8-5.8 0-2.9 2.3-5.1 5.6-5.1 1.4 0 3 .4 4.3 1.1.3.1.4.3.4.4 0 .1-.1.1-.1.2l-.6 1.4c-.1.1-.2.3-.3.3-.1 0-.2 0-.3-.1-1.3-.6-2.5-1-3.4-1-1.8 0-2.8.9-2.8 2.5 0 1.1.6 1.9 2 2.6l2.5 1.3c2.7 1.3 3.7 2.5 3.7 4.7 0 3.1-2.3 5.2-5.8 5.2-1.8 0-3.9-.6-5.4-1.4-.2-.1-.3-.2-.3-.3-.3.1-.3.1-.2 0zm34.1-11.8c3.1.8 4.6 2.9 4.6 6.2 0 4.9-2.7 7-9 7h-5.4c-.4 0-.5-.1-.5-.5v-24.1c0-.4.1-.5.5-.5h6c5.1 0 7.3 1.8 7.3 6 0 2.7-1.2 4.8-3.5 5.9zm-7.3-9.5v8.6h2.7c3.4 0 4.9-1.4 4.9-4.8 0-2.7-1.2-3.8-4.1-3.8H196zm0 11.1v9.2h3.6c3.3 0 5-1.5 5-4.6 0-3-1.8-4.6-5.2-4.6H196zm30.3 2.7c0 5.9-2.8 9.4-7.5 9.4-4.5 0-7.1-3.4-7.1-9.2 0-5.9 2.8-9.4 7.5-9.4 4.5 0 7.1 3.4 7.1 9.2zm-3 .2v-.3c0-4.5-1.5-6.8-4.2-6.8-2.9 0-4.4 2.3-4.4 6.7 0 4.9 1.4 7.3 4.4 7.3 2.8 0 4.2-2.2 4.2-6.9zm17.6 4.8v-13.2c0-.3.2-.4.4-.5l1.9-.5h.2c.3 0 .3.1.3.4v12.8c0 1.9.2 2.8.9 3.8.1.1.1.1.1.2s-.1.1-.2.2l-1.7 1.1-.2.1c-.3 0-1-1-1.3-2.2-2.1 1.6-3.5 2.2-5.5 2.2-3.2 0-5-1.7-5-4.9v-12.7c0-.3.1-.4.4-.5l1.9-.5h.3c.2 0 .3.1.3.4V246c0 3.2.6 4.2 2.6 4.2 1.5 0 3.2-.7 4.6-1.9zm12.2.4l.2-.7.2-.8.1-.6 3.4-11.9c.1-.3.1-.3.5-.3h1.5c.2 0 .3 0 .3.3l3 12.4c.1.3.1.4.1.4.1.1.1.3.1.6 0 .1.1.2.1.4l.1-.5v-.4l.1-.5 3.1-12.6c0-.2.1-.4.2-.4l.1.1h.1l1.7.4c.3 0 .3.1.3.3v.1h-.1l-4.8 16.9c-.1.3-.1.3-.3.3h-1.6c-.2 0-.3-.1-.3-.4l-2.9-11.1c-.1-.4-.2-1-.3-1.6v-.6l-.1-.7c-.1 1.1-.3 2-.6 2.8l-3.4 11.2c-.1.3-.1.3-.3.3H252c-.2 0-.3-.1-.3-.4l-4.2-16.9v-.1c0-.2 0-.3.4-.3l1.8-.4.1-.1h.1c.1 0 .2.1.3.4l2.5 12.2.1.6.2.9.1.7zm37.1-9.7c3.1.8 4.6 2.9 4.6 6.2 0 4.9-2.7 7-9 7h-5.4c-.4 0-.5-.1-.5-.5v-24.1c0-.4.1-.5.5-.5h6c5.1 0 7.3 1.8 7.3 6 .1 2.7-1.2 4.8-3.5 5.9zm-7.3-9.5v8.6h2.7c3.4 0 4.9-1.4 4.9-4.8 0-2.7-1.2-3.8-4.1-3.8h-3.5zm0 11.1v9.2h3.6c3.3 0 5-1.5 5-4.6 0-3-1.8-4.6-5.2-4.6h-3.4zm21.9 9.5c0 1.4-1.2 2.6-2.6 2.6-1.4 0-2.7-1.1-2.6-2.6 0-1.4 1.1-2.6 2.6-2.6 1.4 0 2.6 1.2 2.6 2.6zm11.6-.7c.2-1.2.4-2.3.6-2.8l4.8-19.5c.1-.3.1-.4.3-.4 0 0 .1 0 .3.1l2 .4c.3.1.4.2.4.3 0 .1 0 .1-.1.2v.1l-6.5 23.9c0 .4-.1.4-.5.4h-2.6c-.4 0-.4-.1-.6-.4l-6.4-23.9v-.2c0-.2 0-.3.4-.4l2.1-.4v-.1h.2c.2 0 .3.1.3.4l4.7 19.4c.1.5.2 1.2.4 2.1l.2.8zm16.9.7c0 1.4-1.2 2.6-2.6 2.6-1.4 0-2.7-1.1-2.6-2.6 0-1.4 1.1-2.6 2.6-2.6 1.4 0 2.6 1.2 2.6 2.6z"/></svg>