<?xml version="1.0" encoding="UTF-8"?>
<svg width="130px" height="34px" viewBox="0 0 130 34" version="1.1" xmlns="http://www.w3.org/2000/svg" xmlns:xlink="http://www.w3.org/1999/xlink">
    <title>Group 3</title>
    <g id="Ontwerp-27-07-2021-" stroke="none" stroke-width="1" fill="none" fill-rule="evenodd">
        <g id="1-3-Homepage---Megamenu" transform="translate(-40.000000, -23.000000)" fill-rule="nonzero">
            <g id="Group-4-Copy" transform="translate(40.000000, 21.000000)">
                <g id="Group-3" transform="translate(0.000000, 2.000000)">
                    <g id="previder_logo">
                        <polygon id="Fill_1" fill="#1A243C" points="74 27.976 77 27.976 77 8.976 74 8.976"></polygon>
                        <polygon id="Fill_2" fill="#1A243C" points="53.519 8.976 50 8.976 55.516 27.976 59 27.976"></polygon>
                        <polygon id="Fill_3" fill="#1A243C" points="66.512 8.976 61 27.976 64.409 27.976 70 8.976"></polygon>
                        <g id="Group_19">
                            <path d="M3.322,33.977 L0,33.977 L0,12.35 L0.291,12.171 C1.42955208,11.4323424 2.6177061,10.7731107 3.847,10.198 C5.21567932,9.57296351 6.6959469,9.22916601 8.2,9.187 L8.269,9.187 C10.2933258,9.0327208 12.2538475,9.93452295 13.454,11.572 C14.529,13.128 15.031,15.384 15.034,18.672 C15.034,22.247 14.434,24.655 13.144,26.249 C11.854,27.843 9.815,28.613 6.924,28.613 L6.891,28.613 C5.69455635,28.599429 4.50110277,28.4904164 3.322,28.287 L3.322,33.971 L3.322,33.977 Z M7.994,12.316 C6.83620639,12.3671884 5.69617326,12.6196267 4.625,13.062 C4.063,13.282 3.606,13.501 3.325,13.646 L3.325,25.161 C4.46371033,25.3545673 5.6151932,25.463532 6.77,25.487 L6.87,25.487 C8.73,25.462 9.833,25.026 10.557,24.03 C11.295,23.018 11.651,21.249 11.6470333,18.624 L11.6470333,18.606 C11.635,16.263 11.295,14.575 10.637,13.59 C10.0547618,12.7177582 9.04518526,12.2300068 8,12.316 L7.994,12.316 Z" id="Fill_4" fill="#1A243C"></path>
                            <path d="M28.971,9.025 L28.971,12.414 L28.643,12.481 L28.477,12.515 C26.9915427,12.8425453 25.5534684,13.3566232 24.197,14.045 C23.47,14.404 22.907,14.728 22.597,14.918 L22.597,28.265 L19.271,28.265 L19.271,13.979 C21.9840613,11.4625217 25.3417942,9.74765475 28.971,9.025" id="Fill_6" fill="#1A243C"></path>
                            <path d="M36.488,20.382 L47.074,20.382 L47.168,18.108 C47.168,15.062 46.568,12.833 45.268,11.332 C43.8246255,9.8217407 41.7813371,9.03634024 39.698,9.191 L39.698,9.191 C39.6880335,9.18984229 39.6779665,9.18984229 39.668,9.191 C37.550975,9.06804936 35.4885955,9.89116957 34.038,11.438 C32.635,13.043 31.888,15.491 31.888,18.959 C31.888,21.936 32.272,24.304 33.43,26.011 C34.595,27.733 36.554,28.611 39.263,28.62 C41.5159856,28.5668812 43.7648505,28.4000019 46.001,28.12 L46.001,28.12 L46.188,28.097 L46.562,28.051 L46.445,25.091 L45.782,25.146 L45.767,25.146 L45.767,25.146 C45.338,25.181 41.826,25.455 39.482,25.455 C37.755,25.442 36.814,24.979 36.182,24.11 C35.471507,22.8536006 35.1466666,21.4158163 35.248,19.976 L35.248,17.968 L35.248,17.807 C35.288,15.684 35.736,14.314 36.465,13.491 C37.3087496,12.6332087 38.4884539,12.1921465 39.688,12.286 C40.8645067,12.1523382 42.0323846,12.600087 42.818,13.486 C43.5615493,14.6763811 43.9185428,16.0676778 43.84,17.469 C41.2235912,17.9539535 38.7265308,18.9433356 36.488,20.382 Z" id="Fill_8" fill="#1A243C"></path>
                            <path d="M105.349,20.382 L115.935,20.382 L116.029,18.108 C116.029,15.062 115.429,12.833 114.129,11.332 C112.685786,9.82149989 110.642379,9.03605401 108.559,9.191 L108.559,9.191 C108.549036,9.18980528 108.538964,9.18980528 108.529,9.191 C106.411975,9.06804936 104.349595,9.89116957 102.899,11.438 C101.497,13.043 100.749,15.491 100.749,18.959 C100.749,21.936 101.133,24.304 102.291,26.011 C103.456,27.733 105.415,28.611 108.124,28.62 C110.376986,28.5668812 112.62585,28.4000019 114.862,28.12 L114.862,28.12 L115.049,28.097 L115.423,28.051 L115.305,25.091 L114.642,25.146 L114.627,25.146 L114.627,25.146 C114.198,25.181 110.685,25.455 108.342,25.455 C106.615,25.442 105.675,24.979 105.042,24.11 C104.331395,22.8536437 104.006547,21.4158254 104.108,19.976 L104.108,17.968 L104.108,17.807 C104.149,15.684 104.597,14.314 105.326,13.491 C106.16975,12.6332087 107.349454,12.1921465 108.549,12.286 C109.725507,12.1523382 110.893385,12.600087 111.679,13.486 C112.422549,14.6763811 112.779543,16.0676778 112.701,17.469 C110.084577,17.9539043 107.587507,18.94329 105.349,20.382 Z" id="Fill_10" fill="#1A243C"></path>
                            <path d="M88.254,28.573 C86.2291487,28.725399 84.2690759,27.8217389 83.07,26.183 C81.996,24.632 81.49,22.376 81.49,19.083 C81.49,15.507 82.09,13.099 83.38,11.506 C84.67,9.913 86.709,9.144 89.6,9.144 L89.635,9.144 C90.8314156,9.15726613 92.024867,9.2659441 93.204,9.469 L93.204,3.783 L96.525,3.783 L96.525,25.409 L96.235,25.589 C95.0964496,26.3276603 93.9082953,26.9868921 92.679,27.562 C91.3092355,28.1868242 89.8279649,28.5302776 88.323,28.572 L88.254,28.572 L88.254,28.573 Z M89.659,12.273 C87.799,12.298 86.696,12.733 85.972,13.73 C85.234,14.742 84.878,16.511 84.8819667,19.136 L84.8819667,19.154 C84.894,21.497 85.234,23.184 85.892,24.169 C86.4730153,25.0394303 87.4798423,25.5269627 88.523,25.443 L88.532,25.443 C89.6894045,25.391312 90.8290239,25.1388904 91.9,24.697 C92.456,24.479 92.916,24.259 93.2,24.112 L93.2,12.598 C92.0600437,12.4039751 90.9071472,12.2956717 89.751,12.274 L89.651,12.274 L89.659,12.273 Z" id="Fill_12" fill="#1A243C"></path>
                            <path d="M61.852,11.187 L61.852,11.187 L60.421,10.8 L57.96,10.8 L57.96,6.886 C57.76,6.765 57.335,6.518 56.76,6.231 C55.7409375,5.71532328 54.661159,5.32964011 53.546,5.083 L53.421,5.058 L53.175,5.008 L53.175,2.466 C55.2469369,2.84299943 57.2060038,3.68626336 58.904,4.932 C61.5494117,2.59402128 64.7691892,1.00190709 68.233,0.319 L68.233,3.707 L67.905,3.774 L67.739,3.808 C66.3220537,4.11962132 64.948291,4.60250345 63.648,5.246 C64.2323336,5.472325 64.834386,5.64993047 65.448,5.777 L65.575,5.8 L65.822,5.851 L65.822,8.394 C64.4302975,8.16289092 63.0879067,7.6972808 61.852,7.017 L61.852,11.185 L61.852,11.187 Z M58.543,3.031 L58.543,0 L61.033,0 L61.033,1.259 C60.1640739,1.79211889 59.3324814,2.3838225 58.544,3.03 L58.543,3.031 Z" id="Fill_17" fill="#009ABE"></path>
                        </g>
                    </g>
                    <path d="M129.953,9.019 L129.953,12.408 L129.625,12.475 L129.459,12.509 C127.973209,12.8364955 126.534797,13.3505738 125.178,14.039 C124.451,14.398 123.888,14.722 123.578,14.912 L123.578,28.259 L120.253,28.259 L120.253,13.973 C122.966092,11.4565649 126.323812,9.74170463 129.953,9.019" id="Fill_14" fill="#1A243C"></path>
                </g>
            </g>
        </g>
    </g>
</svg>